<svg width="570" height="537" viewBox="0 0 570 537" fill="none" xmlns="http://www.w3.org/2000/svg">
<g clip-path="url(#clip0_283_246)">
<path d="M413.823 304.726V453.068L438.624 493.507L440.511 496.583H538.369L540.346 304.726H413.823Z" fill="#E6E6E6"/>
<path opacity="0.1" d="M413.823 304.726V453.068L438.624 493.507L440.146 304.726H413.823Z" fill="black"/>
<path d="M177.58 300.769V449.113L152.779 489.551L150.892 492.626H53.0339L51.0566 300.769H177.58Z" fill="#E6E6E6"/>
<path opacity="0.1" d="M177.58 300.769V449.113L152.779 489.551L151.257 300.769H177.58Z" fill="black"/>
<path d="M570 297.803V306.703H38.2065V293.847L87.6296 268.134H526.508L570 297.803Z" fill="#E6E6E6"/>
<path opacity="0.1" d="M570 297.803V306.703H38.2065V293.847L570 297.803Z" fill="black"/>
<path d="M114.319 342.306H90.5951L80.7104 335.383H125.192L114.319 342.306Z" fill="#3F3D56"/>
<path d="M114.319 370.985H90.5951L80.7104 364.063H125.192L114.319 370.985Z" fill="#3F3D56"/>
<path d="M114.319 411.533H90.5951L80.7104 404.61H125.192L114.319 411.533Z" fill="#3F3D56"/>
<path d="M114.319 452.08H90.5951L80.7104 445.157H125.192L114.319 452.08Z" fill="#3F3D56"/>
<path d="M477.084 346.261H500.808L510.693 339.339H466.211L477.084 346.261Z" fill="#3F3D56"/>
<path d="M477.084 374.941H500.808L510.693 368.018H466.211L477.084 374.941Z" fill="#3F3D56"/>
<path d="M477.084 415.489H500.808L510.693 408.566H466.211L477.084 415.489Z" fill="#3F3D56"/>
<path d="M477.084 456.035H500.808L510.693 449.113H466.211L477.084 456.035Z" fill="#3F3D56"/>
<path d="M493.239 96.5906H293.523C292.531 96.5905 291.549 96.7858 290.633 97.1655C289.716 97.5453 288.884 98.1019 288.182 98.8036C287.481 99.5054 286.924 100.338 286.545 101.255C286.165 102.172 285.97 103.155 285.97 104.147V238.748C285.97 239.74 286.165 240.723 286.545 241.64C286.924 242.557 287.481 243.39 288.182 244.091C288.884 244.793 289.716 245.35 290.633 245.73C291.549 246.109 292.531 246.305 293.523 246.305H369.337L366.497 264.448C366.497 264.448 350.265 273.075 361.678 273.329C373.091 273.583 426.86 273.329 426.86 273.329C426.86 273.329 437.259 273.329 420.773 264.194L418.101 246.305H493.239C494.231 246.305 495.214 246.109 496.13 245.73C497.046 245.35 497.879 244.793 498.58 244.092C499.282 243.39 499.838 242.557 500.218 241.64C500.597 240.723 500.793 239.74 500.792 238.748V104.147C500.793 103.155 500.597 102.172 500.218 101.255C499.838 100.338 499.282 99.5054 498.58 98.8036C497.879 98.1019 497.046 97.5453 496.13 97.1655C495.214 96.7858 494.231 96.5904 493.239 96.5906Z" fill="#3F3D56"/>
<path d="M493.564 104.584H293.199V216.742H493.564V104.584Z" fill="#F2F2F2"/>
<path d="M393.381 102.3C394.082 102.3 394.65 101.732 394.65 101.031C394.65 100.33 394.082 99.7625 393.381 99.7625C392.681 99.7625 392.113 100.33 392.113 101.031C392.113 101.732 392.681 102.3 393.381 102.3Z" fill="#F2F2F2"/>
<path d="M393.381 240.849C396.043 240.849 398.2 238.69 398.2 236.028C398.2 233.365 396.043 231.206 393.381 231.206C390.72 231.206 388.562 233.365 388.562 236.028C388.562 238.69 390.72 240.849 393.381 240.849Z" fill="#F2F2F2"/>
<path d="M385.872 287.032V289.57H249.421V287.539L249.608 287.032L252.971 277.897H383.082L385.872 287.032Z" fill="#3F3D56"/>
<path d="M438.383 284.548C438.135 285.611 437.196 286.732 435.076 287.793C427.467 291.599 411.996 286.778 411.996 286.778C411.996 286.778 400.075 284.748 400.075 279.419C400.41 279.19 400.759 278.982 401.12 278.798C404.319 277.104 414.926 272.926 433.733 278.974C435.118 279.41 436.356 280.221 437.307 281.318C437.729 281.733 438.046 282.242 438.233 282.804C438.42 283.365 438.472 283.963 438.383 284.548Z" fill="#3F3D56"/>
<path opacity="0.1" d="M438.383 284.548C429.07 288.118 420.769 288.384 412.249 282.464C409.028 280.081 405.127 278.796 401.12 278.798C404.319 277.104 414.926 272.926 433.733 278.974C435.118 279.41 436.356 280.221 437.307 281.318C437.729 281.733 438.046 282.242 438.233 282.804C438.42 283.365 438.472 283.963 438.383 284.548Z" fill="black"/>
<path d="M426.706 282.464C428.527 282.464 430.003 282.01 430.003 281.449C430.003 280.889 428.527 280.434 426.706 280.434C424.885 280.434 423.409 280.889 423.409 281.449C423.409 282.01 424.885 282.464 426.706 282.464Z" fill="#F2F2F2"/>
<path opacity="0.1" d="M385.872 287.032V289.57H249.421V287.539L249.608 287.032H385.872Z" fill="black"/>
<path d="M75.8688 0.000119446C74.4839 -0.113637 73.0973 0.19629 71.8925 0.888834C70.7095 1.69937 69.9639 3.11933 69.2028 4.4407C66.2929 9.55313 62.3535 14.0052 57.6341 17.5149C54.1966 20.0344 49.8263 23.1759 50.4145 27.8212C50.7247 29.3552 51.2912 30.826 52.09 32.1717C55.2611 38.5763 63.9146 43.5256 63.0635 50.8338C66.2141 45.5567 61.9999 42.9473 65.1505 37.6703C66.6509 35.1573 69.2574 32.3205 71.5227 33.8987C72.2812 34.4271 72.7792 35.3749 73.569 35.8386C75.4534 36.9449 77.4582 34.8298 79.1263 33.3317C84.8784 28.1655 93.0583 29.5189 100.216 31.1286C103.595 31.8885 107.307 32.8855 109.305 36.1168C111.931 40.3653 106.809 44.9537 105.515 49.757C105.41 50.1663 105.405 50.5951 105.501 51.0067C105.597 51.4184 105.791 51.8006 106.067 52.1207C106.343 52.4409 106.692 52.6894 107.085 52.845C107.478 53.0006 107.903 53.0587 108.323 53.0143C110.471 52.8024 113.015 52.6286 113.142 51.6857C115.844 51.7819 119.155 51.4757 120.313 48.6606C120.667 47.5468 120.854 46.3867 120.868 45.218C121.293 40.4892 123.299 36.1752 124.628 31.6745C125.957 27.1738 126.535 21.8992 124.292 17.9089C123.492 16.5812 122.502 15.3776 121.354 14.3361C108.627 2.01391 91.8944 -0.0181713 75.8688 0.000119446Z" fill="#2F2E41"/>
<path d="M65.8316 60.0644C65.8316 60.0644 68.5994 83.141 58.4507 84.9872C48.302 86.8333 67.6768 118.217 67.6768 118.217L113.807 123.756L102.736 86.8333C102.736 86.8333 95.355 84.0641 99.9681 65.6028C104.581 47.1415 65.8316 60.0644 65.8316 60.0644Z" fill="#FFB8B8"/>
<path d="M37.6919 456.52L41.3827 507.289H60.7568L55.2218 456.52H37.6919Z" fill="#FFB8B8"/>
<path d="M179.773 360.522L182.541 402.983L203.762 393.752L195.458 358.676L179.773 360.522Z" fill="#FFB8B8"/>
<path d="M23.8525 262.677C23.8525 262.677 24.7751 316.215 30.3108 333.753C35.8465 351.291 34.9239 352.214 34.0013 354.983C33.0787 357.753 32.156 355.907 32.156 360.522C32.156 365.137 30.3108 438.059 32.156 444.521C34.0013 450.982 26.6204 462.059 32.156 462.982C37.6917 463.905 63.5247 462.982 64.4473 457.444C65.3699 451.905 57.0665 450.059 60.7569 446.367C64.4473 442.675 69.983 366.983 69.983 366.983L82.8995 314.369L106.887 286.677H157.631L173.315 347.599C173.315 347.599 166.857 365.137 171.47 365.137C176.083 365.137 203.761 370.676 203.761 350.368C203.761 330.061 194.535 270.062 192.69 268.215C190.845 266.369 193.612 259.908 190.845 257.139C188.077 254.369 155.786 234.985 143.792 231.293C131.798 227.601 114.972 223.206 114.972 223.206L23.8525 262.677Z" fill="#2F2E41"/>
<path d="M203.761 386.368C203.761 386.368 189.922 381.752 183.464 395.598C177.006 409.444 179.774 413.137 179.774 413.137C179.774 413.137 200.994 420.521 204.684 416.829C206.29 415.222 211.388 414.664 216.636 414.546C224.629 414.367 226.756 403.053 219.207 400.418C218.982 400.34 218.754 400.272 218.523 400.214C211.142 398.367 203.761 386.368 203.761 386.368Z" fill="#2F2E41"/>
<path d="M86.5899 75.295C101.876 75.295 114.268 62.8969 114.268 47.6031C114.268 32.3092 101.876 19.9111 86.5899 19.9111C71.3036 19.9111 58.9116 32.3092 58.9116 47.6031C58.9116 62.8969 71.3036 75.295 86.5899 75.295Z" fill="#FFB8B8"/>
<path d="M50.6082 96.5255C50.6082 96.5255 95.816 105.756 106.887 90.9871C117.959 76.2181 122.572 132.525 122.572 132.525L128.107 191.601L119.804 223.908C119.804 223.908 76.4412 258.985 62.6021 261.754C48.763 264.523 27.543 266.369 27.543 266.369C27.543 266.369 34.0013 163.909 34.0013 162.063C34.0013 160.217 50.6082 96.5255 50.6082 96.5255Z" fill="#0568FD"/>
<path d="M64.3572 79.2137C64.3572 79.2137 54.2989 73.4488 51.531 78.9872C48.7632 84.5256 22.9302 98.3715 20.1624 98.3715C17.3945 98.3715 25.698 174.986 22.0076 184.217C18.3171 193.447 0.787601 260.831 10.9363 266.369C21.085 271.908 13.7041 260.831 23.8528 274.677C34.0015 288.523 83.8223 288.523 86.5901 282.984C89.358 277.446 64.4475 235.908 69.0606 197.139C73.6736 158.371 81.0545 104.833 74.5962 97.4485C68.138 90.064 64.3572 79.2137 64.3572 79.2137Z" fill="#2F2E41"/>
<path d="M97.6616 85.4486L98.9467 81.0239C98.9467 81.0239 137.334 93.7562 139.179 102.064C141.024 110.371 140.102 168.524 133.643 173.14C127.185 177.755 117.959 185.14 124.417 196.216C130.876 207.293 138.256 219.293 143.792 220.216C149.328 221.139 159.476 227.601 156.709 234.062C153.941 240.523 120.727 228.524 120.727 228.524C120.727 228.524 98.5842 211.908 99.5068 186.063C100.429 160.217 97.6616 85.4486 97.6616 85.4486Z" fill="#2F2E41"/>
<path d="M129.953 194.37L107.81 235.908C107.81 235.908 75.5188 269.138 93.971 272.831C112.423 276.523 122.572 242.37 122.572 242.37L146.56 208.216L129.953 194.37Z" fill="#FFB8B8"/>
<path d="M77.2172 7.24564C76.1015 7.16293 74.9841 7.37978 73.9802 7.87378C73.0726 8.53698 72.3246 9.39468 71.7908 10.3842C69.3299 14.0877 66.1221 17.2353 62.3733 19.625C59.5751 21.4058 56.0175 23.6261 56.4963 26.9094C56.7562 28.0102 57.2187 29.0529 57.8602 29.9843C60.4506 34.5568 61.4818 39.8489 60.7978 45.06L68.4921 33.8707C69.7134 32.0945 71.8352 30.0895 73.6793 31.205C74.2967 31.5784 74.7021 32.2483 75.345 32.576C76.8791 33.358 78.511 31.8631 79.8689 30.8042C84.5514 27.1528 91.2102 28.1093 97.037 29.247C99.7878 29.7841 102.809 30.4888 104.435 32.7727C107.138 36.568 104.316 42.052 105.893 46.4366C106.335 46.1273 106.71 45.7325 106.996 45.2756C107.282 44.8187 107.473 44.309 107.559 43.7766C109.759 43.8447 112.454 43.6283 113.397 41.6385C113.683 40.8588 113.836 40.0361 113.848 39.2053C114.194 35.8631 115.827 32.8139 116.909 29.6328C117.991 26.4518 118.461 22.7238 116.636 19.9034C115.968 18.9478 115.162 18.0968 114.244 17.3782C103.884 8.66896 90.2626 7.23271 77.2172 7.24564Z" fill="#2F2E41"/>
<path d="M129.953 98.3716L138.549 100.654C138.549 100.654 158.553 151.909 153.94 186.986C149.327 222.062 146.56 214.678 146.56 214.678C146.56 214.678 139.179 198.063 122.572 201.755L129.953 98.3716Z" fill="#2F2E41"/>
<path d="M38.9699 500.579C36.7451 503.604 37.1911 507.928 35.2204 511.125C33.5121 513.895 30.2926 515.348 28.1559 517.803C27.474 518.619 26.8662 519.494 26.3396 520.417C24.3575 523.739 22.7463 527.996 24.6985 531.336C26.2689 534.022 29.5697 535.072 32.597 535.788C36.4233 536.692 40.3989 537.416 44.2693 536.725C48.1398 536.034 51.9225 533.663 53.3025 529.979C53.5738 529.053 53.8962 528.143 54.2684 527.252C56.3662 523.12 62.9463 523.076 65.0933 518.969C66.5958 516.095 65.2147 512.621 63.8341 509.687L59.6174 500.724C58.2181 497.75 52.5455 499.46 49.5882 498.748C45.7313 497.818 41.7445 496.794 38.9699 500.579Z" fill="#2F2E41"/>
<path d="M8.16846 212.832L46.918 272.831C46.918 272.831 70.9058 303.292 78.2867 289.446C85.6675 275.6 52.4536 252.523 52.4536 252.523L27.5432 206.37L8.16846 212.832Z" fill="#FFB8B8"/>
<path d="M27.5431 100.218L20.1623 98.3716C20.1623 98.3716 5.40056 102.987 1.71013 122.371C-1.9803 141.756 0.787517 219.293 5.40056 220.216C10.0136 221.139 28.1843 206.715 31.0929 209.773C34.0014 212.832 24.7753 197.139 27.5431 188.832C30.3109 180.524 27.5431 100.218 27.5431 100.218Z" fill="#2F2E41"/>
<path d="M374.417 141.42H350.571V147.164H374.417V141.42Z" fill="#0568FD"/>
<path d="M456.994 141.42H448.604V147.164H456.994V141.42Z" fill="#0568FD"/>
<path d="M473.774 141.42H465.384V147.164H473.774V141.42Z" fill="#0568FD"/>
<path d="M439.772 141.42H382.807V147.164H439.772V141.42Z" fill="#0568FD"/>
<path d="M344.389 178.532H320.543V184.276H344.389V178.532Z" fill="#0568FD"/>
<path d="M426.966 178.532H418.576V184.276H426.966V178.532Z" fill="#0568FD"/>
<path d="M443.746 178.532H435.356V184.276H443.746V178.532Z" fill="#0568FD"/>
<path d="M409.744 178.532H352.779V184.276H409.744V178.532Z" fill="#0568FD"/>
<path d="M442.863 154.233H419.017V159.976H442.863V154.233Z" fill="#0568FD"/>
<path d="M475.099 154.233H451.253V159.976H475.099V154.233Z" fill="#0568FD"/>
<path d="M328.933 154.233H320.543V159.976H328.933V154.233Z" fill="#0568FD"/>
<path d="M345.713 154.233H337.323V159.976H345.713V154.233Z" fill="#0568FD"/>
<path d="M411.068 154.233H354.104V159.976H411.068V154.233Z" fill="#0568FD"/>
<path d="M393.405 166.603H369.56V172.347H393.405V166.603Z" fill="#0568FD"/>
<path d="M361.169 166.603H337.323V172.347H361.169V166.603Z" fill="#0568FD"/>
<path d="M328.933 166.603H320.543V172.347H328.933V166.603Z" fill="#0568FD"/>
<path d="M475.099 166.603H466.709V172.347H475.099V166.603Z" fill="#0568FD"/>
<path d="M458.318 166.603H401.354V172.347H458.318V166.603Z" fill="#0568FD"/>
</g>
<defs>
<clipPath id="clip0_283_246">
<rect width="570" height="537" fill="white"/>
</clipPath>
</defs>
</svg>
