<?xml version="1.0" encoding="UTF-8" standalone="no" ?>
<!DOCTYPE svg PUBLIC "-//W3C//DTD SVG 1.1//EN" "http://www.w3.org/Graphics/SVG/1.1/DTD/svg11.dtd">
<svg xmlns="http://www.w3.org/2000/svg" xmlns:xlink="http://www.w3.org/1999/xlink" version="1.1" width="640" height="480" viewBox="0 0 640 480" xml:space="preserve">
<desc>Created with Fabric.js 3.6.3</desc>
<defs>
</defs>
<g transform="matrix(1 0 0 1 320.23 330.58)"  >
<g style=""   >
		<g transform="matrix(1 0 0 1 0.79 -90.04)"  >
<path style="stroke: none; stroke-width: 1; stroke-dasharray: none; stroke-linecap: butt; stroke-dashoffset: 0; stroke-linejoin: miter; stroke-miterlimit: 4; fill: rgb(63,61,86); fill-rule: nonzero; opacity: 1;"  transform=" translate(-313.02, -217.04)" d="M 616.514 2.664 L 9.514 2.664 C 4.7 2.669 0.799 6.57 0.795 11.384 L 0.795 422.704 C 0.799 427.518 4.7 431.42 9.514 431.424 L 616.514 431.424 C 619.066 431.424 621.489 430.306 623.145 428.364 C 623.214 428.289 623.277 428.209 623.335 428.124 C 623.855 427.488 624.277 426.776 624.585 426.014 C 625.023 424.966 625.248 423.84 625.244 422.704 L 625.244 11.384 C 625.239 6.567 621.332 2.664 616.514 2.664 Z M 622.754 422.704 C 622.755 423.921 622.397 425.111 621.724 426.124 C 621.126 427.016 620.315 427.745 619.364 428.244 C 618.483 428.699 617.506 428.936 616.514 428.934 L 9.514 428.934 C 6.075 428.93 3.288 426.143 3.284 422.704 L 3.284 11.384 C 3.288 7.945 6.075 5.158 9.514 5.154 L 616.514 5.154 C 619.957 5.154 622.749 7.942 622.754 11.384 L 622.754 422.704 Z" stroke-linecap="round" />
</g>
		<g transform="matrix(1 0 0 1 0.79 -268.23)"  >
<rect style="stroke: none; stroke-width: 1; stroke-dasharray: none; stroke-linecap: butt; stroke-dashoffset: 0; stroke-linejoin: miter; stroke-miterlimit: 4; fill: rgb(63,61,86); fill-rule: nonzero; opacity: 1;"  x="-310.98" y="-1.245" rx="0" ry="0" width="621.96" height="2.49" />
</g>
		<g transform="matrix(1 0 0 1 -289 -285.72)"  >
<circle style="stroke: none; stroke-width: 1; stroke-dasharray: none; stroke-linecap: butt; stroke-dashoffset: 0; stroke-linejoin: miter; stroke-miterlimit: 4; fill: rgb(63,61,86); fill-rule: nonzero; opacity: 1;"  cx="0" cy="0" r="7.478" />
</g>
		<g transform="matrix(1 0 0 1 -267.5 -285.72)"  >
<circle style="stroke: none; stroke-width: 1; stroke-dasharray: none; stroke-linecap: butt; stroke-dashoffset: 0; stroke-linejoin: miter; stroke-miterlimit: 4; fill: rgb(63,61,86); fill-rule: nonzero; opacity: 1;"  cx="0" cy="0" r="7.478" />
</g>
		<g transform="matrix(1 0 0 1 -246 -285.72)"  >
<circle style="stroke: none; stroke-width: 1; stroke-dasharray: none; stroke-linecap: butt; stroke-dashoffset: 0; stroke-linejoin: miter; stroke-miterlimit: 4; fill: rgb(63,61,86); fill-rule: nonzero; opacity: 1;"  cx="0" cy="0" r="7.478" />
</g>
		<g transform="matrix(1 0 0 1 -11.47 -79.55)"  >
<path style="stroke: none; stroke-width: 1; stroke-dasharray: none; stroke-linecap: butt; stroke-dashoffset: 0; stroke-linejoin: miter; stroke-miterlimit: 4; fill: rgb(47,46,65); fill-rule: nonzero; opacity: 1;"  transform=" translate(-300.75, -227.54)" d="M 277.772 249.534 C 270.292 244.666 266.572 233.351 268.405 223.003 C 270.237 212.655 277.139 203.742 285.412 199.898 C 293.588 196.213 303.068 196.887 310.64 201.691 C 318.227 206.331 328.957 208.872 332.56 218.154 C 335.329 225.287 331.817 239.771 328.091 246.7 C 324.87 252.688 318.75 255.427 313 256.617 C 300.128 259.242 286.751 256.155 276.331 248.156 L 277.772 249.534 Z" stroke-linecap="round" />
</g>
		<g transform="matrix(1 0 0 1 -51.13 1.43)"  >
<polygon style="stroke: none; stroke-width: 1; stroke-dasharray: none; stroke-linecap: butt; stroke-dashoffset: 0; stroke-linejoin: miter; stroke-miterlimit: 4; fill: rgb(255,184,184); fill-rule: nonzero; opacity: 1;"  points="12.77,-4.01 6.8,6.29 6,7.65 4.86,9.65 -12.78,9.65 -11.59,7.65 -8.5,2.46 -1.32,-9.66 6.81,-6.41 12.77,-4.01 " />
</g>
		<g transform="matrix(1 0 0 1 -45.76 -12.05)"  >
<path style="stroke: none; stroke-width: 1; stroke-dasharray: none; stroke-linecap: butt; stroke-dashoffset: 0; stroke-linejoin: miter; stroke-miterlimit: 4; fill: rgb(47,46,65); fill-rule: nonzero; opacity: 1;"  transform=" translate(-266.46, -295.03)" d="M 247.001 318.164 L 243.781 316.164 L 243.381 315.914 L 263.591 279.084 C 265.346 275.864 268.317 273.481 271.841 272.464 C 274.043 271.808 276.376 271.722 278.621 272.214 C 279.93 272.491 281.191 272.963 282.361 273.614 C 282.842 273.878 283.306 274.172 283.751 274.494 C 285.46 275.692 286.864 277.275 287.851 279.114 C 290.242 283.498 290.081 288.832 287.431 293.064 L 279.641 305.514 L 272.981 316.164 L 271.731 318.164 L 247.001 318.164 L 247.001 318.164 Z" stroke-linecap="round" />
</g>
		<g transform="matrix(1 0 0 1 -13.3 -69.04)"  >
<circle style="stroke: none; stroke-width: 1; stroke-dasharray: none; stroke-linecap: butt; stroke-dashoffset: 0; stroke-linejoin: miter; stroke-miterlimit: 4; fill: rgb(255,184,184); fill-rule: nonzero; opacity: 1;"  cx="0" cy="0" r="24.561" />
</g>
		<g transform="matrix(1 0 0 1 -16.82 -13.55)"  >
<path style="stroke: none; stroke-width: 1; stroke-dasharray: none; stroke-linecap: butt; stroke-dashoffset: 0; stroke-linejoin: miter; stroke-miterlimit: 4; fill: rgb(5,104,253); fill-rule: nonzero; opacity: 1;"  transform=" translate(-295.4, -293.54)" d="M 323.581 318.164 L 268.371 318.164 L 268.621 317.454 C 268.481 317.024 268.351 316.594 268.231 316.164 C 268.101 315.714 267.99 315.254 267.891 314.804 C 266.994 310.618 266.997 306.289 267.901 302.104 C 270.951 287.124 283.121 274.954 283.121 274.954 C 283.331 274.794 283.541 274.644 283.751 274.494 C 285.561 273.169 287.525 272.067 289.601 271.214 C 298.641 267.464 308.121 268.974 314.49 270.914 C 316.709 271.585 318.877 272.41 320.981 273.384 C 321.72 273.734 322.121 273.954 322.121 273.954 L 322.751 293.164 L 323.51 316.164 L 323.581 318.164 Z" stroke-linecap="round" />
</g>
		<g transform="matrix(1 0 0 1 19.79 -14.77)"  >
<path style="stroke: none; stroke-width: 1; stroke-dasharray: none; stroke-linecap: butt; stroke-dashoffset: 0; stroke-linejoin: miter; stroke-miterlimit: 4; fill: rgb(47,46,65); fill-rule: nonzero; opacity: 1;"  transform=" translate(-332.01, -292.31)" d="M 349.121 316.164 L 344.901 294.704 L 340.641 273.064 C 340.277 271.235 338.827 269.817 336.99 269.494 L 328.07 267.954 L 319.771 266.524 C 318.139 266.23 316.479 266.866 315.461 268.174 C 314.837 268.952 314.495 269.918 314.49 270.914 C 314.491 271.53 314.617 272.139 314.861 272.704 C 319.191 282.804 319.271 298.794 318.171 316.164 C 318.121 316.824 318.081 317.494 318.03 318.164 L 349.521 318.164 L 349.121 316.164 Z" stroke-linecap="round" />
</g>
		<g transform="matrix(1 0 0 1 -42.45 -14.1)"  >
<path style="stroke: none; stroke-width: 1; stroke-dasharray: none; stroke-linecap: butt; stroke-dashoffset: 0; stroke-linejoin: miter; stroke-miterlimit: 4; fill: rgb(47,46,65); fill-rule: nonzero; opacity: 1;"  transform=" translate(-269.77, -292.98)" d="M 289.601 271.214 C 288.804 268.056 285.032 266.748 282.451 268.734 L 278.621 272.214 L 262.941 286.494 C 262.452 286.933 262.069 287.476 261.82 288.084 C 260.05 292.314 256.601 300.664 252.59 310.974 C 251.941 312.654 251.271 314.384 250.581 316.164 C 250.34 316.824 250.081 317.494 249.82 318.164 L 275.661 318.164 C 275.871 317.494 276.081 316.824 276.291 316.164 C 277.441 312.534 278.561 308.974 279.641 305.514 C 282.8 295.464 285.651 286.334 287.851 279.114 C 288.461 277.114 289.017 275.268 289.521 273.574 C 289.756 272.808 289.783 271.994 289.601 271.214 Z" stroke-linecap="round" />
</g>
		<g transform="matrix(1 0 0 1 32.75 -1.09)"  >
<polygon style="stroke: none; stroke-width: 1; stroke-dasharray: none; stroke-linecap: butt; stroke-dashoffset: 0; stroke-linejoin: miter; stroke-miterlimit: 4; fill: rgb(255,184,184); fill-rule: nonzero; opacity: 1;"  points="9.95,12.16 11.63,12.16 11.39,11.6 10.78,10.16 1.38,-12.17 -0.06,-11.3 -11.63,-4.31 -5.69,10.16 -4.88,12.16 4.56,12.16 9.95,12.16 " />
</g>
		<g transform="matrix(1 0 0 1 27.41 -14.38)"  >
<path style="stroke: none; stroke-width: 1; stroke-dasharray: none; stroke-linecap: butt; stroke-dashoffset: 0; stroke-linejoin: miter; stroke-miterlimit: 4; fill: rgb(47,46,65); fill-rule: nonzero; opacity: 1;"  transform=" translate(-339.63, -292.7)" d="M 345.381 276.124 C 342.735 269.199 335.098 265.595 328.07 267.954 C 327.638 268.097 327.214 268.264 326.8 268.454 C 324.431 269.511 322.413 271.221 320.981 273.384 C 320.396 274.248 319.916 275.178 319.55 276.154 C 318.24 279.578 318.351 283.383 319.861 286.724 L 322.751 293.164 L 333.091 316.164 L 333.99 318.164 L 354.921 318.164 L 356.361 317.604 L 360.101 316.164 L 360.621 315.964 L 345.381 276.124 Z" stroke-linecap="round" />
</g>
		<g transform="matrix(1 0 0 1 2.71 -104.25)"  >
<path style="stroke: none; stroke-width: 1; stroke-dasharray: none; stroke-linecap: butt; stroke-dashoffset: 0; stroke-linejoin: miter; stroke-miterlimit: 4; fill: rgb(47,46,65); fill-rule: nonzero; opacity: 1;"  transform=" translate(-314.94, -202.83)" d="M 318.215 209.836 C 319.975 210.364 321.87 209.644 322.837 208.082 C 323.74 206.512 323.864 204.613 323.175 202.939 C 322.478 201.289 321.38 199.84 319.98 198.724 C 318.39 197.285 316.455 196.283 314.362 195.816 C 312.247 195.361 310.039 195.846 308.31 197.146 C 306.593 198.504 305.871 200.767 306.484 202.869 C 307.12 204.713 308.842 205.949 310.563 206.869 C 313.976 208.691 317.739 209.761 321.601 210.007 L 318.215 209.836 Z" stroke-linecap="round" />
</g>
		<g transform="matrix(1 0 0 1 -9.72 -83.76)"  >
<path style="stroke: none; stroke-width: 1; stroke-dasharray: none; stroke-linecap: butt; stroke-dashoffset: 0; stroke-linejoin: miter; stroke-miterlimit: 4; fill: rgb(47,46,65); fill-rule: nonzero; opacity: 1;"  transform=" translate(-302.5, -223.32)" d="M 322.993 237.311 C 319.044 237.855 319.551 235.846 317.97 232.187 C 316.388 228.528 314.271 224.184 310.302 223.814 C 307.05 223.51 304.37 226.11 301.735 228.041 C 297.039 231.482 290.71 233.167 285.266 231.102 C 279.822 229.038 276.039 222.55 278.105 217.106 C 279.404 214.068 281.905 211.704 285.011 210.577 C 288.094 209.481 291.369 209.026 294.634 209.24 C 301.896 209.472 309.018 211.296 315.498 214.581 C 319.97 216.853 324.324 220.104 326.02 224.825 C 327.717 229.546 328.833 236.18 323.982 237.457 L 322.993 237.311 Z" stroke-linecap="round" />
</g>
		<g transform="matrix(1 0 0 1 38.53 -87.96)"  >
<path style="stroke: none; stroke-width: 1; stroke-dasharray: none; stroke-linecap: butt; stroke-dashoffset: 0; stroke-linejoin: miter; stroke-miterlimit: 4; fill: rgb(47,46,65); fill-rule: nonzero; opacity: 1;"  transform=" translate(-350.76, -219.12)" d="M 316.196 196.851 C 314.245 193.454 315.856 188.793 319.049 186.523 C 322.243 184.253 326.527 184.03 330.338 184.94 C 338.008 186.873 344.067 192.746 346.238 200.352 C 347.855 206.293 346.893 212.674 348.263 218.677 C 351.346 232.192 365.185 240.308 378.485 236.403 C 382.587 235.198 386.756 232.27 387.159 228.013 C 388.03 238.034 382.432 247.498 373.232 251.562 C 367.947 253.767 362.051 253.911 356.327 253.764 C 352.596 253.668 348.78 253.443 345.339 252 C 340.528 249.806 336.804 245.768 335.005 240.796 C 333.253 235.849 332.78 230.54 333.63 225.361 C 334.193 221.333 335.313 217.385 335.627 213.329 C 335.94 209.274 335.346 204.944 332.846 201.735 C 330.346 198.527 325.57 196.888 322.015 198.865 C 320.587 199.66 319.434 200.958 317.882 201.471 C 316.33 201.984 314.13 201.082 314.271 199.454 L 316.196 196.851 Z" stroke-linecap="round" />
</g>
		<g transform="matrix(1 0 0 1 195.92 -22.88)"  >
<path style="stroke: none; stroke-width: 1; stroke-dasharray: none; stroke-linecap: butt; stroke-dashoffset: 0; stroke-linejoin: miter; stroke-miterlimit: 4; fill: rgb(5,104,253); fill-rule: nonzero; opacity: 1;"  transform=" translate(-508.14, -284.21)" d="M 483.8 318.164 L 483.99 316.164 L 489.631 257.484 C 491.479 256.037 493.466 254.774 495.561 253.714 C 507.171 247.864 518.371 250.664 524.43 253.084 C 526.036 253.713 527.588 254.472 529.071 255.354 L 532.371 316.164 L 532.481 318.164 L 483.8 318.164 Z" stroke-linecap="round" />
</g>
		<g transform="matrix(1 0 0 1 197.99 -89.78)"  >
<circle style="stroke: none; stroke-width: 1; stroke-dasharray: none; stroke-linecap: butt; stroke-dashoffset: 0; stroke-linejoin: miter; stroke-miterlimit: 4; fill: rgb(255,184,184); fill-rule: nonzero; opacity: 1;"  cx="0" cy="0" r="24.561" />
</g>
		<g transform="matrix(1 0 0 1 197.71 -101.94)"  >
<path style="stroke: none; stroke-width: 1; stroke-dasharray: none; stroke-linecap: butt; stroke-dashoffset: 0; stroke-linejoin: miter; stroke-miterlimit: 4; fill: rgb(47,46,65); fill-rule: nonzero; opacity: 1;"  transform=" translate(-509.93, -205.15)" d="M 530.142 232.282 C 537.225 224.816 533.57 212.481 523.563 210.079 C 522.396 209.799 521.196 209.678 519.996 209.718 C 516.6 209.831 513.4 211.221 510.158 212.241 C 505.246 213.912 500.005 214.384 494.873 213.618 C 489.711 212.816 485.052 210.065 481.857 205.932 C 478.818 201.755 477.871 195.963 480.017 191.265 C 482.496 185.841 488.285 182.853 493.731 180.425 C 495.927 179.325 498.273 178.555 500.693 178.137 C 503.145 177.73 505.655 178.363 507.62 179.883 C 509.15 181.2 510.047 183.178 511.713 184.319 C 513.587 185.603 516.022 185.569 518.283 185.796 C 537.589 187.728 547.564 209.835 536.237 225.588 C 534.645 227.802 532.705 229.743 530.491 231.336 L 530.142 232.282 Z" stroke-linecap="round" />
</g>
		<g transform="matrix(1 0 0 1 166.28 -22.15)"  >
<path style="stroke: none; stroke-width: 1; stroke-dasharray: none; stroke-linecap: butt; stroke-dashoffset: 0; stroke-linejoin: miter; stroke-miterlimit: 4; fill: rgb(47,46,65); fill-rule: nonzero; opacity: 1;"  transform=" translate(-478.5, -284.93)" d="M 499.22 263.874 L 495.561 253.714 L 495.332 253.081 C 494.869 251.796 493.322 251.286 492.186 252.044 L 488.03 254.814 C 488.03 254.814 461.381 254.814 459.24 270.804 C 459.211 271.054 459.171 271.334 459.141 271.634 C 459.139 271.648 459.136 271.661 459.131 271.674 C 458.861 272.724 453.831 292.164 449.51 316.164 C 449.391 316.824 449.271 317.494 449.151 318.164 L 507.061 318.164 L 507.061 318.164 C 508.945 294.055 507.891 271.639 499.22 263.874 Z" stroke-linecap="round" />
</g>
		<g transform="matrix(1 0 0 1 228 -22.15)"  >
<path style="stroke: none; stroke-width: 1; stroke-dasharray: none; stroke-linecap: butt; stroke-dashoffset: 0; stroke-linejoin: miter; stroke-miterlimit: 4; fill: rgb(47,46,65); fill-rule: nonzero; opacity: 1;"  transform=" translate(-540.23, -284.93)" d="M 568.3 316.164 C 565.141 291.544 560.621 271.634 560.621 271.634 C 560.581 271.334 560.541 271.054 560.51 270.804 C 558.381 254.814 531.731 254.814 531.731 254.814 L 527.578 252.046 C 526.44 251.287 524.893 251.798 524.43 253.084 L 520.541 263.874 C 511.87 271.639 510.816 294.055 512.7 318.163 L 512.701 318.164 L 568.55 318.164 C 568.47 317.494 568.381 316.824 568.3 316.164 Z" stroke-linecap="round" />
</g>
		<g transform="matrix(1 0 0 1 -224.11 -18.47)"  >
<path style="stroke: none; stroke-width: 1; stroke-dasharray: none; stroke-linecap: butt; stroke-dashoffset: 0; stroke-linejoin: miter; stroke-miterlimit: 4; fill: rgb(5,104,253); fill-rule: nonzero; opacity: 1;"  transform=" translate(-88.11, -288.61)" d="M 99.22 260.104 L 93.28 316.164 L 93.07 318.164 L 77.001 318.164 C 77.191 317.514 77.381 316.844 77.581 316.164 C 82.141 300.524 88.351 277.694 87.68 271.644 C 86.631 262.204 93.981 259.054 93.981 259.054 L 94.441 259.144 L 99.22 260.104 Z" stroke-linecap="round" />
</g>
		<g transform="matrix(1 0 0 1 -187.09 -88.84)"  >
<circle style="stroke: none; stroke-width: 1; stroke-dasharray: none; stroke-linecap: butt; stroke-dashoffset: 0; stroke-linejoin: miter; stroke-miterlimit: 4; fill: rgb(160,97,106); fill-rule: nonzero; opacity: 1;"  cx="0" cy="0" r="24.561" />
</g>
		<g transform="matrix(1 0 0 1 -186.93 -22.59)"  >
<path style="stroke: none; stroke-width: 1; stroke-dasharray: none; stroke-linecap: butt; stroke-dashoffset: 0; stroke-linejoin: miter; stroke-miterlimit: 4; fill: rgb(5,104,253); fill-rule: nonzero; opacity: 1;"  transform=" translate(-125.29, -284.49)" d="M 156.93 306.264 C 155.692 308.548 154.677 310.945 153.901 313.424 C 153.611 314.304 153.331 315.224 153.071 316.164 C 152.881 316.814 152.711 317.484 152.541 318.164 L 87.76 318.164 C 87.851 317.504 87.93 316.834 88.021 316.164 C 91.331 290.014 94.01 263.474 94.441 259.144 C 94.481 258.734 94.501 258.524 94.501 258.524 C 133.32 238.064 161.651 264.824 161.651 264.824 C 161.651 264.824 161.691 265.014 161.751 265.384 C 162.371 269.124 165.53 290.964 156.93 306.264 Z" stroke-linecap="round" />
</g>
		<g transform="matrix(1 0 0 1 -144.94 -15.35)"  >
<path style="stroke: none; stroke-width: 1; stroke-dasharray: none; stroke-linecap: butt; stroke-dashoffset: 0; stroke-linejoin: miter; stroke-miterlimit: 4; fill: rgb(5,104,253); fill-rule: nonzero; opacity: 1;"  transform=" translate(-167.28, -291.74)" d="M 153.901 313.424 L 149.581 304.164 L 150.631 267.444 L 161.751 265.384 L 162.141 265.314 C 167.889 268.655 172.336 273.844 174.76 280.034 C 176.921 285.434 181.03 301.674 184.501 316.164 C 184.661 316.834 184.82 317.504 184.981 318.164 L 156.111 318.164 L 155.18 316.164 L 153.901 313.424 Z" stroke-linecap="round" />
</g>
		<g transform="matrix(1 0 0 1 -189.82 -71.42)"  >
<path style="stroke: none; stroke-width: 1; stroke-dasharray: none; stroke-linecap: butt; stroke-dashoffset: 0; stroke-linejoin: miter; stroke-miterlimit: 4; fill: rgb(63,61,86); fill-rule: nonzero; opacity: 1;"  transform=" translate(-122.4, -235.66)" d="M 193.411 153.164 L 51.391 153.164 C 45.048 153.172 39.908 158.312 39.901 164.654 L 39.901 306.674 C 39.908 313.017 45.048 318.157 51.391 318.164 L 193.411 318.164 C 199.755 318.16 204.897 313.018 204.901 306.674 L 204.901 164.654 C 204.897 158.31 199.755 153.168 193.411 153.164 Z M 202.901 306.674 C 202.896 311.913 198.65 316.16 193.411 316.164 L 51.391 316.164 C 46.153 316.156 41.909 311.912 41.901 306.674 L 41.901 164.654 C 41.909 159.416 46.153 155.172 51.391 155.164 L 193.411 155.164 C 198.65 155.169 202.896 159.415 202.901 164.654 L 202.901 306.674 Z M 93.28 316.164 L 93.07 318.164 L 152.541 318.164 C 152.711 317.484 152.881 316.814 153.07 316.164 L 93.28 316.164 Z" stroke-linecap="round" />
</g>
		<g transform="matrix(1 0 0 1 0.79 -71.42)"  >
<path style="stroke: none; stroke-width: 1; stroke-dasharray: none; stroke-linecap: butt; stroke-dashoffset: 0; stroke-linejoin: miter; stroke-miterlimit: 4; fill: rgb(63,61,86); fill-rule: nonzero; opacity: 1;"  transform=" translate(-313.01, -235.66)" d="M 384.021 153.164 L 242.001 153.164 C 235.658 153.172 230.518 158.312 230.51 164.654 L 230.51 306.674 C 230.518 313.017 235.658 318.157 242.001 318.164 L 384.021 318.164 C 390.365 318.16 395.506 313.018 395.51 306.674 L 395.51 164.654 C 395.506 158.31 390.365 153.168 384.021 153.164 Z M 393.51 306.674 C 393.506 311.913 389.26 316.16 384.021 316.164 L 242.001 316.164 C 236.763 316.156 232.518 311.912 232.51 306.674 L 232.51 164.654 C 232.518 159.416 236.763 155.172 242.001 155.164 L 384.021 155.164 C 389.26 155.169 393.506 159.415 393.51 164.654 L 393.51 306.674 Z M 268.231 316.164 C 268.351 316.594 268.481 317.024 268.621 317.454 L 268.371 318.164 L 318.03 318.164 C 318.081 317.494 318.121 316.824 318.171 316.164 L 268.231 316.164 Z" stroke-linecap="round" />
</g>
		<g transform="matrix(1 0 0 1 191.41 -71.42)"  >
<path style="stroke: none; stroke-width: 1; stroke-dasharray: none; stroke-linecap: butt; stroke-dashoffset: 0; stroke-linejoin: miter; stroke-miterlimit: 4; fill: rgb(63,61,86); fill-rule: nonzero; opacity: 1;"  transform=" translate(-503.63, -235.66)" d="M 574.641 153.164 L 432.621 153.164 C 426.277 153.168 421.135 158.31 421.131 164.654 L 421.131 306.674 C 421.135 313.018 426.277 318.16 432.621 318.164 L 574.641 318.164 C 580.983 318.156 586.123 313.017 586.131 306.674 L 586.131 164.654 C 586.123 158.312 580.983 153.172 574.641 153.164 Z M 584.131 306.674 C 584.123 311.912 579.879 316.156 574.641 316.164 L 432.621 316.164 C 427.381 316.16 423.135 311.914 423.131 306.674 L 423.131 164.654 C 423.135 159.415 427.381 155.168 432.621 155.164 L 574.641 155.164 C 579.879 155.172 584.123 159.416 584.131 164.654 L 584.131 306.674 Z M 507.211 316.164 C 507.161 316.824 507.111 317.494 507.061 318.164 L 550.151 318.164 C 550.231 317.504 550.32 316.834 550.401 316.164 L 507.211 316.164 Z" stroke-linecap="round" />
</g>
		<g transform="matrix(1 0 0 1 0.79 61.08)"  >
<path style="stroke: none; stroke-width: 1; stroke-dasharray: none; stroke-linecap: butt; stroke-dashoffset: 0; stroke-linejoin: miter; stroke-miterlimit: 4; fill: rgb(204,204,204); fill-rule: nonzero; opacity: 1;"  transform=" translate(-313.02, -368.16)" d="M 478.016 376.164 L 148.016 376.164 C 141.857 376.164 138.008 369.498 141.087 364.164 C 142.516 361.689 145.157 360.164 148.016 360.164 L 478.016 360.164 C 484.174 360.164 488.023 366.831 484.944 372.164 C 483.515 374.639 480.874 376.164 478.016 376.164 Z" stroke-linecap="round" />
</g>
		<g transform="matrix(1 0 0 1 0.79 -203.92)"  >
<path style="stroke: none; stroke-width: 1; stroke-dasharray: none; stroke-linecap: butt; stroke-dashoffset: 0; stroke-linejoin: miter; stroke-miterlimit: 4; fill: rgb(5,104,253); fill-rule: nonzero; opacity: 1;"  transform=" translate(-313.02, -103.16)" d="M 385.516 111.164 L 240.516 111.164 C 234.357 111.164 230.508 104.498 233.587 99.164 C 235.016 96.689 237.657 95.164 240.516 95.164 L 385.516 95.164 C 391.674 95.164 395.523 101.831 392.444 107.164 C 391.015 109.639 388.374 111.164 385.516 111.164 Z" stroke-linecap="round" />
</g>
		<g transform="matrix(1 0 0 1 -185.86 -94.6)"  >
<path style="stroke: none; stroke-width: 1; stroke-dasharray: none; stroke-linecap: butt; stroke-dashoffset: 0; stroke-linejoin: miter; stroke-miterlimit: 4; fill: rgb(47,46,65); fill-rule: nonzero; opacity: 1;"  transform=" translate(-126.36, -212.48)" d="M 136.885 239.638 C 138.605 241.334 141.309 241.507 143.231 240.045 C 149.02 235.754 154.101 230.413 157.109 223.898 C 160.555 216.433 160.939 207.273 156.784 200.178 C 153.272 194.18 147.07 190.31 140.889 187.132 C 138.489 185.777 135.903 184.781 133.215 184.174 C 130.498 183.575 127.654 184.033 125.263 185.457 C 122.87 186.958 121.639 189.772 122.163 192.548 C 119.194 189.16 115.391 186.607 111.131 185.142 C 108.448 184.093 105.511 183.88 102.705 184.532 C 98.783 185.644 95.919 189.129 94.353 192.894 C 93.086 195.757 92.649 198.919 93.09 202.019 C 93.56 205.138 95.33 207.912 97.961 209.653 C 101.204 211.66 105.342 211.515 109.066 210.695 C 112.791 209.876 116.396 208.45 120.193 208.089 C 123.989 207.729 128.217 208.675 130.528 211.709 C 132.155 213.846 132.573 216.638 132.938 219.298 L 134.838 233.138 C 134.993 235.14 135.504 237.098 136.347 238.92 C 136.493 239.183 136.674 239.424 136.885 239.638 Z" stroke-linecap="round" />
</g>
</g>
</g>
</svg>