<svg width="628" height="478" viewBox="0 0 628 478" fill="none" xmlns="http://www.w3.org/2000/svg">
<g clip-path="url(#clip0_295_117)">
<path d="M612.351 208.217C612.526 205.445 606.235 204.091 606.521 201.665C606.806 199.247 613.151 199.75 619.859 195.383C621.069 194.596 628.692 189.634 627.949 185.911C626.54 178.854 596.312 182.456 593.37 172.189C592.725 169.936 593.325 166.776 591.544 159.695C590.836 156.878 590.248 155.416 589.047 154.954C587.343 154.3 585.894 156.232 581.71 159.086C575.437 163.366 574.29 162.027 569.789 165.799C566.447 168.599 565.324 170.807 563.869 170.362C561.81 169.732 562.73 164.904 560.372 163.725C557.967 162.522 553.772 165.932 551.202 168.889C546.378 174.438 545.878 179.999 544.275 185.083C542.532 190.609 538.672 198.154 529.095 205.925L441.669 271.717C460.073 258.546 511.54 223.159 531.592 210.665C537.381 207.059 543.46 203.548 550.097 205.162C556.487 206.717 562.624 212.836 572.926 216.895C574.129 217.369 577.494 218.644 579.01 217.157C580.262 215.927 579.109 213.93 580.262 212.764C581.809 211.199 585.139 213.525 590.596 214.321C594.444 214.882 597.394 214.398 599.93 213.982C600.695 213.857 612.118 211.908 612.351 208.217L612.351 208.217Z" fill="#F2F2F2"/>
<path d="M464.634 170.846C463.368 169.957 460.91 172.759 459.841 171.914C458.776 171.071 460.845 167.997 460.708 163.333C460.683 162.492 460.527 157.192 458.545 156.495C454.788 155.174 447.776 171.551 442.053 170.082C440.798 169.759 439.47 168.543 435.595 167.403C434.053 166.95 433.189 166.827 432.624 167.303C431.821 167.979 432.32 169.271 432.468 172.217C432.69 176.636 431.724 176.831 432.215 180.204C432.58 182.707 433.305 183.914 432.673 184.524C431.78 185.387 429.754 183.527 428.514 184.383C427.249 185.257 427.657 188.369 428.32 190.526C429.562 194.575 432.058 196.433 434.009 198.714C436.129 201.192 438.598 205.328 439.523 212.43L445.533 275.774C444.59 262.635 442.64 226.31 442.494 212.531C442.452 208.553 442.54 204.455 445.221 201.553C447.803 198.759 452.478 197.411 457.378 193.355C457.95 192.881 459.527 191.541 459.258 190.343C459.036 189.353 457.754 189.361 457.534 188.44C457.237 187.204 459.302 186.185 461.254 183.646C462.631 181.855 463.253 180.219 463.787 178.812C463.948 178.387 466.319 172.029 464.634 170.846L464.634 170.846V170.846Z" fill="#F2F2F2"/>
<path d="M485.945 194.521L489.834 186.964L490.534 186.678C493.772 185.356 496.183 183.533 497.704 181.26C497.946 180.898 498.17 180.524 498.398 180.143C499.302 178.632 500.426 176.755 502.749 175.283C504.048 174.465 507.307 172.75 509.256 174.628C509.785 175.127 510.044 175.718 510.164 176.281C510.267 176.235 510.372 176.189 510.484 176.14C511.868 175.551 512.708 175.473 513.516 175.398C514.137 175.34 514.778 175.281 515.968 174.909C516.49 174.746 516.921 174.583 517.284 174.447C518.382 174.035 519.757 173.589 521.04 174.523C522.379 175.57 522.32 177.266 522.281 178.389C522.213 180.392 521.935 181.674 521.75 182.523C521.682 182.834 521.606 183.183 521.604 183.307C521.601 184.3 525.645 186.232 527.163 186.969C530.58 188.611 533.537 190.033 533.305 192.806C533.141 194.791 531.307 196.27 527.7 197.316C526.577 197.641 525.536 197.755 524.651 197.796C524.937 198.437 525.067 199.201 524.766 200.044C524.052 202.037 521.509 202.741 517.203 202.141C516.132 201.995 514.693 201.793 513.016 200.999C512.227 200.624 511.57 200.204 511.015 199.836C510.788 200.153 510.481 200.454 510.049 200.68C508.779 201.35 507.272 201.03 505.59 199.659C503.719 198.18 502.374 196.665 501.187 195.331C500.149 194.168 499.252 193.17 498.382 192.638C496.752 191.674 494.716 192.109 492.222 192.777L485.945 194.521L485.945 194.521Z" fill="#F2F2F2"/>
<path d="M517.157 155.23L509.1 153.257L508.655 152.63C506.597 149.727 504.28 147.778 501.767 146.834C501.367 146.684 500.96 146.555 500.546 146.423C498.903 145.902 496.861 145.255 494.895 143.304C493.8 142.214 491.369 139.389 492.631 136.964C492.964 136.308 493.452 135.9 493.948 135.636C493.878 135.545 493.809 135.452 493.734 135.352C492.833 134.117 492.547 133.298 492.272 132.508C492.06 131.902 491.842 131.276 491.192 130.18C490.907 129.699 490.646 129.31 490.426 128.982C489.762 127.988 488.996 126.726 489.544 125.206C490.184 123.602 491.786 123.231 492.846 122.984C494.738 122.544 496.008 122.497 496.85 122.467C497.157 122.456 497.504 122.443 497.619 122.414C498.55 122.165 499.332 117.631 499.636 115.926C500.306 112.092 500.886 108.775 503.54 108.303C505.439 107.963 507.288 109.423 509.181 112.764C509.77 113.805 510.141 114.817 510.404 115.691C510.931 115.243 511.613 114.919 512.477 115.006C514.524 115.215 515.827 117.58 516.358 122.038C516.493 123.146 516.669 124.636 516.352 126.515C516.201 127.399 515.975 128.162 515.771 128.811C516.125 128.957 516.484 129.188 516.806 129.563C517.754 130.662 517.837 132.251 516.981 134.281C516.072 136.528 514.996 138.256 514.049 139.782C513.224 141.115 512.518 142.264 512.241 143.27C511.752 145.144 512.675 147.07 513.933 149.395L517.157 155.23L517.157 155.23V155.23Z" fill="#F2F2F2"/>
<path d="M527.328 132.055L531.217 124.497L531.917 124.211C535.155 122.889 537.566 121.067 539.087 118.793C539.329 118.432 539.553 118.057 539.781 117.676C540.685 116.166 541.809 114.288 544.132 112.816C545.431 111.998 548.69 110.283 550.639 112.161C551.168 112.66 551.427 113.251 551.547 113.815C551.65 113.768 551.755 113.723 551.867 113.673C553.252 113.085 554.091 113.007 554.899 112.932C555.52 112.874 556.161 112.815 557.351 112.443C557.873 112.28 558.304 112.117 558.667 111.98C559.765 111.568 561.14 111.122 562.423 112.056C563.762 113.103 563.703 114.799 563.664 115.922C563.596 117.925 563.318 119.207 563.133 120.057C563.065 120.367 562.99 120.717 562.988 120.84C562.984 121.833 567.028 123.766 568.546 124.502C571.963 126.145 574.92 127.566 574.688 130.34C574.524 132.325 572.69 133.804 569.083 134.85C567.96 135.175 566.919 135.289 566.034 135.33C566.32 135.971 566.45 136.734 566.149 137.577C565.435 139.571 562.892 140.274 558.586 139.675C557.515 139.529 556.076 139.327 554.399 138.533C553.61 138.158 552.954 137.738 552.398 137.37C552.171 137.687 551.864 137.987 551.432 138.214C550.162 138.883 548.655 138.563 546.973 137.192C545.102 135.713 543.757 134.198 542.57 132.865C541.532 131.702 540.635 130.704 539.765 130.172C538.135 129.207 536.099 129.642 533.605 130.311L527.328 132.055V132.055H527.328Z" fill="#F2F2F2"/>
<path d="M444.018 273.212L443.206 271.283L443.986 269.341L443.206 271.283L441.417 270.305C441.496 270.127 441.649 269.697 441.892 269.028C443.229 265.364 447.292 254.211 455.368 237.834C461.006 226.401 467.411 215.079 474.408 204.176C481.416 193.256 487.333 185.422 492.087 179.125C495.674 174.376 499.168 169.909 502.574 165.56C511.67 153.937 520.261 142.958 528.112 129.628C529.866 126.653 533.515 120.458 534.35 111.71C534.834 106.636 534.305 101.452 532.774 96.3047L536.666 95.0676C538.353 100.753 538.936 106.493 538.398 112.127C537.472 121.827 533.497 128.576 531.587 131.819C523.597 145.385 514.922 156.469 505.737 168.203C502.346 172.538 498.865 176.984 495.294 181.714C490.583 187.952 484.718 195.719 477.8 206.499C470.885 217.271 464.56 228.455 458.991 239.742C451.018 255.914 447.016 266.901 445.702 270.511C444.998 272.437 444.851 272.841 444.018 273.212V273.212V273.212Z" fill="#F2F2F2"/>
<path d="M522.965 97.4596C522.827 97.3621 522.69 97.26 522.556 97.1501C519.803 94.9667 518.328 91.3233 518.169 86.3218C518.098 83.9715 518.714 81.7839 519.943 77.4212C520.131 76.748 521.125 73.3587 523.146 69.159C524.466 66.4142 525.202 65.3973 526.295 64.8121C527.511 64.159 528.849 64.051 530.14 64.2535C530.318 63.8912 530.579 63.5732 530.949 63.3228C532.48 62.2807 533.875 63.5475 534.638 64.2217C535.018 64.5707 535.49 65.0097 536.071 65.3762C536.982 65.9565 537.635 66.0208 538.623 66.1224C539.568 66.2189 540.743 66.339 542.187 66.9684C545.042 68.1983 546.65 70.4123 547.181 71.1415C549.983 74.9627 549.839 79.1481 549.673 83.9939C549.637 84.9641 549.42 88.4352 548.115 92.4802C547.174 95.3984 546.361 96.4156 545.623 97.0783C544.112 98.443 542.508 98.7014 538.644 99.0422C534.605 99.4035 532.579 99.5824 531.023 99.4608C527.402 99.1724 525.128 98.9914 522.965 97.4595L522.965 97.4596V97.4596Z" fill="#F2F2F2"/>
<path d="M506.925 0.422729H278.843C270.476 0.422729 263.673 7.45648 263.673 16.1065V259.328C263.673 267.978 270.476 275.012 278.843 275.012H506.925C515.292 275.012 522.096 267.978 522.096 259.328V16.1065C522.096 7.45648 515.292 0.422729 506.925 0.422729ZM520.5 259.328C520.5 267.08 514.423 273.363 506.925 273.363H278.843C271.346 273.363 265.268 267.08 265.268 259.328V16.1065C265.268 8.3554 271.346 2.07192 278.843 2.07192H399.657C466.397 2.07192 520.5 58.006 520.5 127.004V259.328Z" fill="#3F3D56"/>
<path d="M258.845 183.223C250.851 185.456 245.486 191.531 246.862 196.791C248.238 202.05 255.833 204.502 263.83 202.266C267.036 201.418 269.999 199.789 272.471 197.514L306.227 187.607L301.393 171.33L268.629 182.825C265.384 182.148 262.029 182.284 258.845 183.223Z" fill="#FFB6B6"/>
<path d="M400.302 134.387C400.302 134.387 409.832 148.841 388.354 159.744C366.875 170.647 327.172 186.209 327.172 186.209L272.353 199.339L264.074 180.575L329.123 162.253L382.129 131.67L400.302 134.387H400.302Z" fill="#3F3D56"/>
<path d="M393.925 95.9166C393.682 102.768 398.452 110.901 403.497 111.068C409.565 111.269 438.251 113.381 439.173 110.921C445.576 93.8429 415.422 58.416 408.625 57.394C404.972 56.8448 400.598 62.2667 398.917 66.7426C396.56 73.015 400.038 75.973 398.075 84.4231C396.578 90.8668 394.096 91.127 393.925 95.9166Z" fill="#2F2E41"/>
<path d="M343.992 365.998L323.859 370.768L344.089 432.827L357.732 429.596L343.992 365.998Z" fill="#FFB6B6"/>
<path d="M336.798 413.474L344.585 414.654L345.785 418.967C345.785 418.967 346.045 413.481 354.645 409.722L356.881 413.582C356.881 413.582 361.485 416.644 362.972 424.236L366.276 444.769L359.515 446.623L354.554 433.134C354.554 433.134 351.824 430.554 347.482 448.006C347.482 448.006 345.724 453.871 329.772 453.191C327.58 453.098 325.651 451.585 325.066 449.399C324.743 448.193 324.885 446.945 326.232 446.109C329.659 443.981 333.645 444.181 335.182 440.399C336.72 436.617 336.798 413.474 336.798 413.474Z" fill="#2F2E41"/>
<path d="M387.732 394.213L369.754 393.754L372.271 459.102L386.265 459.36L387.732 394.213Z" fill="#FFB6B6"/>
<path d="M369.699 438.503L376.982 441.587L377.143 446.071C377.143 446.071 378.672 440.811 387.894 439.302L389.166 443.605C389.166 443.605 392.922 447.723 392.599 455.461L391.026 476.213L384.032 476.331L382.356 462.003C382.356 462.003 380.307 458.82 372.03 474.679C372.03 474.679 368.959 479.934 353.634 475.306C351.528 474.67 350.007 472.722 349.948 470.454C349.916 469.203 350.345 468.027 351.846 467.551C355.668 466.339 359.49 467.524 361.863 464.235C364.235 460.947 369.699 438.503 369.699 438.503Z" fill="#2F2E41"/>
<path d="M424.832 322.836L329.747 315.229L356.505 201.822L420.525 192.286L424.832 322.836Z" fill="#2F2E41"/>
<path d="M411.718 114.376L431.753 103.341L447.931 123.09L415.421 230.814L355.953 203.591L401.121 123.758L411.718 114.376Z" fill="#0568FD"/>
<path d="M414.257 211.364C414.257 211.364 420.637 245.373 400.882 263.049L394.835 282.926L388.305 319.613L388.896 414.368L364.968 411.895L355.397 321.193L355.283 276.051L319.958 307.325L356.928 382.395L326.803 396.033L290.011 305.567C287.455 300.056 288.136 293.525 291.771 288.704L355.953 203.591L414.257 211.364Z" fill="#2F2E41"/>
<path d="M439.062 112.263L399.781 150.149C390.485 228.139 395.559 299.752 422.307 361.749L488.315 330.121C433.886 313.054 439.224 219.342 449.785 118.932L439.062 112.263Z" fill="#3F3D56"/>
<path d="M405.186 123.883L411.229 114.217L377.808 134.53L351.38 210.245L400.131 147.349L405.186 123.883Z" fill="#3F3D56"/>
<path d="M488.787 266.301C491.091 274.525 497.062 279.962 502.124 278.445C507.186 276.929 509.421 269.034 507.115 260.808C506.238 257.509 504.609 254.475 502.365 251.961L492.18 217.245L476.524 222.534L488.227 256.196C487.631 259.562 487.823 263.027 488.787 266.301Z" fill="#FFB6B6"/>
<path d="M437.536 119.74C437.536 119.74 451.236 109.476 462.396 131.359C473.555 153.242 489.742 193.825 489.742 193.825L504.012 250.099L486.108 259.193L466.523 192.497L435.431 138.599L437.536 119.74Z" fill="#3F3D56"/>
<path d="M421.244 102.453C433.532 102.453 443.494 92.1543 443.494 79.4503C443.494 66.7464 433.532 56.4478 421.244 56.4478C408.956 56.4478 398.995 66.7464 398.995 79.4503C398.995 92.1543 408.956 102.453 421.244 102.453Z" fill="#FFB6B6"/>
<path d="M421.318 70.476C420.065 70.3483 419.421 71.7174 414.638 73.6277C412.944 74.3044 412.076 74.6441 411.081 74.7102C408.056 74.9112 405.704 73.1836 404.133 72.0291C401.578 70.1523 399.933 68.9434 399.611 67.0107C399.192 64.4886 401.954 61.6712 407.494 56.1394C410.208 53.4303 411.861 51.7939 414.516 49.8463C418.969 46.5795 421.196 44.9462 424.317 44.6256C428.451 44.2012 431.594 46.2407 436.129 49.1836C437.355 49.9787 439.121 50.361 440.994 50.5067C447.124 50.9837 452.38 55.2081 454.047 61.3257C454.174 61.7931 454.281 62.2161 454.362 62.5784C457.653 77.4325 456.734 92.8821 452.231 107.392C452.109 107.783 452.008 108.146 451.929 108.478C449.837 117.314 421.097 120.759 417.736 113.289C415.619 108.584 425.512 103.878 426.989 89.8512C428.017 80.0865 424.442 70.7945 421.318 70.4761V70.476Z" fill="#2F2E41"/>
<path d="M334.659 75.6694H93.5826V76.9464H334.659V75.6694Z" fill="#E6E6E6"/>
<path d="M300.625 56.9901H127.617C124.891 56.9901 122.674 54.6976 122.674 51.8797C122.674 49.0619 124.891 46.7693 127.617 46.7693H300.625C303.351 46.7693 305.568 49.0619 305.568 51.8797C305.568 54.6976 303.351 56.9901 300.625 56.9901Z" fill="#E6E6E6"/>
<path d="M94.117 85.8365C99.8435 85.8365 104.486 81.0372 104.486 75.1168C104.486 69.1965 99.8435 64.3971 94.117 64.3971C88.3904 64.3971 83.7482 69.1965 83.7482 75.1168C83.7482 81.0372 88.3904 85.8365 94.117 85.8365Z" fill="#E6E6E6"/>
<path d="M126.021 62.7479C131.748 62.7479 136.39 57.9486 136.39 52.0282C136.39 46.1079 131.748 41.3085 126.021 41.3085C120.294 41.3085 115.652 46.1079 115.652 52.0282C115.652 57.9486 120.294 62.7479 126.021 62.7479Z" fill="#E6E6E6"/>
<path d="M253.304 195.235H12.2273V196.512H253.304V195.235Z" fill="#3F3D56"/>
<path d="M219.27 176.556H46.2612C43.5356 176.556 41.3181 174.264 41.3181 171.446C41.3181 168.628 43.5356 166.335 46.2612 166.335H219.27C221.996 166.335 224.213 168.628 224.213 171.446C224.213 174.264 221.996 176.556 219.27 176.556Z" fill="#0568FD"/>
<path d="M10.3688 205.403C16.0954 205.403 20.7376 200.603 20.7376 194.683C20.7376 188.763 16.0954 183.963 10.3688 183.963C4.64228 183.963 0 188.763 0 194.683C0 200.603 4.64228 205.403 10.3688 205.403Z" fill="#0568FD"/>
<path d="M42.2729 182.314C47.9994 182.314 52.6417 177.515 52.6417 171.594C52.6417 165.674 47.9994 160.875 42.2729 160.875C36.5463 160.875 31.9041 165.674 31.9041 171.594C31.9041 177.515 36.5463 182.314 42.2729 182.314Z" fill="#0568FD"/>
<path d="M282.018 327.17H40.9409V328.447H282.018V327.17Z" fill="#E6E6E6"/>
<path d="M247.984 308.491H74.9748C72.2493 308.491 70.0317 306.198 70.0317 303.381C70.0317 300.563 72.2493 298.27 74.9748 298.27H247.984C250.709 298.27 252.927 300.563 252.927 303.381C252.927 306.198 250.709 308.491 247.984 308.491Z" fill="#E6E6E6"/>
<path d="M70.1889 313.424C75.9154 313.424 80.5577 308.625 80.5577 302.705C80.5577 296.784 75.9154 291.985 70.1889 291.985C64.4623 291.985 59.8201 296.784 59.8201 302.705C59.8201 308.625 64.4623 313.424 70.1889 313.424Z" fill="#E6E6E6"/>
<path d="M39.0824 338.162C44.809 338.162 49.4513 333.363 49.4513 327.442C49.4513 321.522 44.809 316.723 39.0824 316.723C33.3559 316.723 28.7136 321.522 28.7136 327.442C28.7136 333.363 33.3559 338.162 39.0824 338.162Z" fill="#E6E6E6"/>
</g>
<defs>
<clipPath id="clip0_295_117">
<rect width="628" height="476.789" fill="white" transform="translate(0 0.422729)"/>
</clipPath>
</defs>
</svg>
